<svg width="24" height="24" viewBox="0 0 24 24" fill="none" xmlns="http://www.w3.org/2000/svg">
    <path d="M12 8V12L15 15" stroke="#4e54ff" stroke-width="2" stroke-linecap="round" stroke-linejoin="round"/>
    <path d="M3.05176 11.0001C3.27025 8.18972 4.51115 5.55729 6.53003 3.67572C8.5489 1.79416 11.1953 0.806363 13.9157 0.922274C16.6361 1.03818 19.1901 2.24808 21.0557 4.27872C22.9213 6.30935 23.9489 8.99546 23.9489 11.7828C23.9489 14.5702 22.9213 17.2563 21.0557 19.2869C19.1901 21.3175 16.6361 22.5274 13.9157 22.6433C11.1953 22.7592 8.5489 21.7714 6.53003 19.8899C4.51115 18.0083 3.27025 15.3759 3.05176 12.5655" stroke="#4e54ff" stroke-width="2" stroke-linecap="round" stroke-linejoin="round"/>
    <path d="M3.05176 16.0001L1.00006 12.5655L4.43444 10.5137" stroke="#4e54ff" stroke-width="2" stroke-linecap="round" stroke-linejoin="round"/>
</svg> 